<svg width="150" height="120" viewBox="0 0 150 120" fill="none" xmlns="http://www.w3.org/2000/svg">
  <g stroke="#6E7784" stroke-width="2.2" stroke-linecap="round" stroke-linejoin="round">
    <g transform="translate(14 18) scale(0.55)">
      <rect x="38" y="31" width="6" height="56" rx="3"/>
      <rect x="47" y="31" width="6" height="56" rx="3"/>
      <rect x="56" y="31" width="6" height="56" rx="3"/>
      <rect x="65" y="31" width="6" height="56" rx="3"/>
      <rect x="74" y="31" width="6" height="56" rx="3"/>

      <line x1="42" y1="26" x2="42" y2="31"/>
      <line x1="51" y1="26" x2="51" y2="31"/>
      <line x1="60" y1="26" x2="60" y2="31"/>
      <line x1="69" y1="26" x2="69" y2="31"/>
      <line x1="78" y1="26" x2="78" y2="31"/>
      <line x1="43" y1="87" x2="39" y2="94"/>
      <line x1="78" y1="87" x2="82" y2="94"/>
    </g>

    <line x1="75" y1="54" x2="84" y2="54"/>
    <line x1="79.5" y1="49.5" x2="79.5" y2="58.5"/>

    <path d="M100 43C103 38 112 35 123 35C134 35 143 38 146 43"/>
    <path d="M100 43V51C100 53 110 56 123 56C136 56 146 53 146 51V43"/>
    <line x1="112" y1="30" x2="112" y2="35"/>
    <line x1="123" y1="29" x2="123" y2="35"/>
    <line x1="134" y1="30" x2="134" y2="35"/>
    <line x1="110" y1="46" x2="113" y2="46"/>
    <line x1="118" y1="47" x2="121" y2="47"/>
    <line x1="126" y1="46" x2="129" y2="46"/>
    <line x1="134" y1="47" x2="137" y2="47"/>
    <path d="M108 64C108 66 106 68 106 70C106 72 107 74 110 74C112 74 114 72 114 70C114 68 112 66 112 64C112 63 110 62 108 64Z"/>
    <path d="M120 64C120 66 118 68 118 70C118 72 119 74 122 74C124 74 126 72 126 70C126 68 124 66 124 64C124 63 122 62 120 64Z"/>
    <path d="M132 64C132 66 130 68 130 70C130 72 131 74 134 74C136 74 138 72 138 70C138 68 136 66 136 64C136 63 134 62 132 64Z"/>
  </g>
</svg>
