<svg width="120" height="120" viewBox="0 0 120 120" fill="none" xmlns="http://www.w3.org/2000/svg">
  <g stroke="#6E7784" stroke-width="2.2" stroke-linecap="round" stroke-linejoin="round">
    <path d="M29 47C33 39 45 35 60 35C75 35 87 39 91 47"/>
    <path d="M29 47V58C29 60 43 64 60 64C77 64 91 60 91 58V47"/>
    <line x1="46" y1="29" x2="46" y2="35"/>
    <line x1="60" y1="27" x2="60" y2="35"/>
    <line x1="74" y1="29" x2="74" y2="35"/>
    <line x1="41" y1="50" x2="45" y2="50"/>
    <line x1="51" y1="52" x2="55" y2="52"/>
    <line x1="61" y1="50" x2="65" y2="50"/>
    <line x1="71" y1="52" x2="75" y2="52"/>
    <path d="M37 74C37 77 34 79 34 82C34 85 36 87 39 87C42 87 44 85 44 82C44 79 41 77 41 74C41 72 39 71 37 74Z"/>
    <path d="M53 74C53 77 50 79 50 82C50 85 52 87 55 87C58 87 60 85 60 82C60 79 57 77 57 74C57 72 55 71 53 74Z"/>
    <path d="M69 74C69 77 66 79 66 82C66 85 68 87 71 87C74 87 76 85 76 82C76 79 73 77 73 74C73 72 71 71 69 74Z"/>
    <path d="M45 86C45 89 42 91 42 94C42 97 44 99 47 99C50 99 52 97 52 94C52 91 49 89 49 86C49 84 47 83 45 86Z"/>
    <path d="M61 86C61 89 58 91 58 94C58 97 60 99 63 99C66 99 68 97 68 94C68 91 65 89 65 86C65 84 63 83 61 86Z"/>
    <path d="M77 86C77 89 74 91 74 94C74 97 76 99 79 99C82 99 84 97 84 94C84 91 81 89 81 86C81 84 79 83 77 86Z"/>
  </g>
</svg>
