<?xml version="1.0" encoding="utf-8"?>
<svg xmlns="http://www.w3.org/2000/svg" width="70" height="76" viewBox="0 0 70 76" fill="none">
<g clip-path="url(#clip0_8_630)">
<path d="M3.113 79.833C3.113 79.833 0 79.833 0 82.695V91.22C0 91.22 0 94.083 3.113 94.083H66.754C66.754 94.083 69.867 94.083 69.867 91.22V82.695C69.867 82.695 69.867 79.833 66.754 79.833H3.113Z" fill="#FFED00"/>
<path d="M3.14425 0C3.14425 0 0.03125 0 0.03125 3.079V72.379C0.03125 72.379 0.0312502 75.457 3.14425 75.457H66.7853C66.7853 75.457 69.8983 75.457 69.8983 72.379V3.079C69.8983 3.079 69.8983 0 66.7853 0H3.14425Z" fill="black"/>
<path d="M63.6749 8.46598C63.6749 7.19398 62.6249 6.15698 61.3399 6.15698C60.6969 6.15698 60.1219 6.42498 59.6819 6.82698L6.90185 59.027C6.48542 59.4575 6.25423 60.034 6.25785 60.633C6.25785 61.905 7.34085 62.976 8.62685 63.009H61.3739C62.6599 63.009 63.7079 61.972 63.7079 60.7V8.46598" fill="#FFED00"/>
<path fill-rule="evenodd" clip-rule="evenodd" d="M34.0365 66.8899C33.9355 67.0919 33.7665 67.2259 33.5295 67.3259C33.6645 67.3259 33.7655 67.3929 33.8335 67.4929C33.9082 67.5565 33.9666 67.6371 34.0035 67.7279L34.1035 68.0279C34.1035 68.0779 34.1135 68.1289 34.1215 68.1789C34.1295 68.2289 34.1385 68.2789 34.1385 68.3289V68.5639C34.1715 68.6309 34.1715 68.7309 34.1715 68.8319C34.1715 68.9319 34.1715 69.0319 34.2055 69.0989L34.3075 69.2999H33.3935C33.3246 69.1537 33.29 68.9936 33.2925 68.8319C33.2783 68.7434 33.2673 68.6543 33.2595 68.5649C33.2505 68.4719 33.2425 68.3849 33.2245 68.2959C33.1905 68.0959 33.1225 67.9279 33.0215 67.8279C32.9195 67.6939 32.7515 67.6609 32.5135 67.6609H31.6005V69.3009H30.6875V65.1169H32.9535C33.1235 65.1169 33.3265 65.1509 33.4615 65.2169C33.6168 65.2541 33.7579 65.3358 33.8675 65.452C33.9685 65.552 34.0375 65.6859 34.1045 65.8199C34.1735 65.9544 34.2082 66.1038 34.2055 66.2549C34.2055 66.4889 34.1385 66.7229 34.0365 66.8899ZM33.1235 66.8579C33.239 66.7297 33.2996 66.5614 33.2925 66.3889C33.2925 66.1889 33.2245 66.0539 33.1225 65.9539C33.0225 65.8539 32.8525 65.8199 32.6495 65.8199H31.6345V66.9909H32.6495C32.8525 66.9909 33.0215 66.9579 33.1235 66.8579Z" fill="#FFED00"/>
<path d="M38.2632 65.084V65.887H36.0302V66.757H38.0942V67.493H36.0302V68.497H38.3302V69.267H35.1172V65.084H38.2632ZM41.4442 69.233C41.2412 69.3 41.0382 69.367 40.8342 69.367C40.4962 69.367 40.2252 69.3 39.9542 69.2C39.6842 69.1 39.4812 68.932 39.3122 68.731C38.9487 68.3016 38.7561 67.7533 38.7712 67.191C38.7712 66.891 38.8042 66.59 38.9062 66.322C39.0082 66.054 39.1432 65.82 39.3122 65.619C39.4822 65.419 39.7182 65.251 39.9552 65.151C40.2252 65.051 40.4962 64.984 40.8352 64.984C41.0382 64.984 41.2752 65.017 41.4772 65.084C41.6802 65.151 41.8502 65.251 42.0192 65.352C42.1882 65.486 42.3232 65.619 42.4252 65.82C42.5262 65.988 42.5942 66.222 42.6282 66.456H41.7482C41.6959 66.2539 41.591 66.0693 41.4442 65.921C41.2742 65.821 41.1052 65.753 40.8682 65.753C40.6652 65.753 40.4962 65.787 40.3272 65.887C40.1836 65.9623 40.0658 66.079 39.9892 66.222C39.8872 66.356 39.8192 66.522 39.7862 66.69C39.7522 66.858 39.7182 67.025 39.7182 67.226C39.7182 67.393 39.7522 67.56 39.7862 67.728C39.8192 67.895 39.8872 68.028 39.9892 68.162C40.0902 68.296 40.1922 68.397 40.3272 68.497C40.4622 68.564 40.6652 68.631 40.8682 68.631C41.1732 68.631 41.4102 68.564 41.5782 68.397C41.7482 68.229 41.8502 68.029 41.8832 67.727H40.9362V67.058H42.6962V69.3H42.1202L42.0192 68.832C41.8162 68.999 41.6472 69.166 41.4442 69.233ZM43.6092 65.084H44.5232V69.267H43.6092V65.084ZM46.1472 68.263C46.2142 68.363 46.2822 68.43 46.3502 68.497C46.4172 68.564 46.5192 68.597 46.6542 68.631C46.7562 68.665 46.8912 68.665 46.9932 68.665C47.0602 68.665 47.1622 68.665 47.2632 68.631C47.3652 68.631 47.4332 68.598 47.5332 68.564C47.6022 68.531 47.6692 68.464 47.7372 68.397C47.8042 68.33 47.8042 68.229 47.8042 68.129C47.8042 68.029 47.7712 67.929 47.7032 67.861C47.6263 67.7864 47.5342 67.7294 47.4332 67.694C47.3312 67.661 47.1962 67.594 47.0262 67.56C46.8912 67.527 46.7222 67.493 46.5862 67.426C46.4172 67.393 46.2822 67.326 46.1132 67.293C45.9709 67.2274 45.8349 67.1487 45.7072 67.058C45.6052 66.958 45.5042 66.858 45.4372 66.724C45.3644 66.5669 45.3295 66.395 45.3352 66.222C45.3352 66.021 45.3682 65.82 45.4702 65.652C45.5712 65.486 45.6732 65.352 45.8422 65.252C45.9772 65.151 46.1472 65.084 46.3502 65.017C46.5532 64.95 46.7222 64.95 46.9252 64.95C47.1622 64.95 47.3652 64.984 47.5682 65.017C47.7712 65.051 47.9402 65.151 48.1092 65.251C48.2792 65.351 48.3792 65.486 48.4812 65.653C48.5832 65.82 48.6172 66.021 48.6172 66.255H47.7032C47.7044 66.151 47.6811 66.0482 47.6352 65.955C47.5892 65.8796 47.5323 65.8115 47.4662 65.753C47.3783 65.7142 47.2881 65.6808 47.1962 65.653C47.0942 65.619 46.9932 65.619 46.8912 65.619C46.8232 65.619 46.7562 65.619 46.6542 65.653C46.5823 65.6596 46.5129 65.6826 46.4512 65.72C46.3832 65.753 46.3502 65.82 46.3162 65.854C46.2737 65.9248 46.2503 66.0054 46.2482 66.088C46.2482 66.155 46.2482 66.222 46.2822 66.288C46.3162 66.356 46.3832 66.389 46.4852 66.423C46.5862 66.456 46.6882 66.523 46.8572 66.556C47.0272 66.59 47.2292 66.656 47.5002 66.724C47.5682 66.757 47.7032 66.757 47.8382 66.824C47.9742 66.858 48.1092 66.924 48.2442 67.024C48.3802 67.125 48.5152 67.226 48.6172 67.393C48.7182 67.527 48.7522 67.728 48.7522 67.962C48.7522 68.162 48.7182 68.33 48.6502 68.497C48.5798 68.6704 48.4628 68.8209 48.3122 68.932C48.1772 69.066 47.9742 69.133 47.7712 69.2C47.5682 69.267 47.2972 69.3 47.0262 69.3C46.7892 69.3 46.5532 69.267 46.3502 69.2C46.1472 69.133 45.9442 69.066 45.7742 68.932C45.6048 68.8091 45.4659 68.6489 45.3682 68.464C45.2672 68.263 45.2332 68.062 45.2332 67.794H46.1472C46.094 67.9458 46.094 68.1111 46.1472 68.263ZM48.9552 65.887V65.084H52.4052V65.887H51.1542V69.267H50.2072V65.887H48.9552ZM56.0942 65.084V65.887H53.8612V66.757H55.9252V67.493H53.8612V68.497H56.1282V69.267H52.9482V65.084H56.0942Z" fill="#FFED00"/>
<path fill-rule="evenodd" clip-rule="evenodd" d="M60.2943 66.8899C60.1933 67.0919 60.0243 67.2259 59.7873 67.3259C59.9223 67.3259 60.0243 67.3929 60.0913 67.4929C60.1663 67.5562 60.2247 67.6369 60.2613 67.7279L60.3613 68.0279C60.3613 68.0779 60.3713 68.1289 60.3793 68.1789C60.3873 68.2289 60.3963 68.2789 60.3963 68.3289V68.5639C60.4303 68.6309 60.4303 68.7309 60.4303 68.8319C60.4303 68.9319 60.4303 69.0319 60.4633 69.0989L60.5653 69.2999H59.6513C59.5824 69.1537 59.5478 68.9936 59.5503 68.8319C59.5361 68.7434 59.5251 68.6543 59.5173 68.5649C59.5103 68.4747 59.4986 68.3849 59.4823 68.2959C59.4483 68.0959 59.3813 67.9279 59.2793 67.8279C59.1783 67.6939 59.0093 67.6609 58.7723 67.6609H57.8583V69.3009H56.9453V65.1169H59.2123C59.4153 65.1169 59.5843 65.1509 59.7193 65.2169C59.8893 65.2509 60.0243 65.352 60.1253 65.452C60.2273 65.552 60.2953 65.6859 60.3623 65.8199C60.4312 65.9544 60.4659 66.1038 60.4633 66.2549C60.4633 66.4889 60.3963 66.7229 60.2943 66.8899ZM59.3813 66.8579C59.4968 66.7297 59.5575 66.5614 59.5503 66.3889C59.5503 66.1889 59.4823 66.0539 59.3803 65.9539C59.2803 65.8539 59.1103 65.8199 58.9073 65.8199H57.8923V66.9909H58.9073C59.1103 66.9909 59.2793 66.9579 59.3813 66.8579Z" fill="#FFED00"/>
<path d="M18.5587 87.6219C18.6237 88.1739 18.8787 88.5549 19.3267 88.7659C19.5567 88.8739 19.8207 88.9269 20.1217 88.9269C20.6947 88.9269 21.1197 88.7449 21.3947 88.3799C21.6707 88.0139 21.8087 87.6099 21.8087 87.1659C21.8087 86.6289 21.6437 86.2129 21.3147 85.9199C20.9932 85.628 20.5719 85.4705 20.1377 85.4799C19.8047 85.4799 19.5177 85.5439 19.2787 85.6729C19.0391 85.8047 18.8317 85.9882 18.6717 86.2099L17.8337 86.1609L18.4197 82.0209H22.4157V82.9549H19.1447L18.8167 85.0929C18.9967 84.9569 19.1667 84.8539 19.3267 84.7859C19.6432 84.6623 19.981 84.6022 20.3207 84.6089C21.0257 84.6089 21.6237 84.8369 22.1147 85.2909C22.6047 85.7459 22.8507 86.3229 22.8507 87.0209C22.8598 87.7219 22.6199 88.4033 22.1737 88.9439C21.7257 89.4989 21.0097 89.7759 20.0257 89.7759C19.4284 89.7853 18.8442 89.6008 18.3607 89.2499C17.8807 88.8949 17.6117 88.3529 17.5547 87.6219H18.5587ZM24.7837 87.7239C24.8127 88.2579 25.0187 88.6269 25.4017 88.8309C25.5987 88.9379 25.8207 88.9909 26.0677 88.9909C26.5297 88.9909 26.9237 88.8009 27.2497 88.4169C27.5757 88.0309 27.8057 87.2479 27.9427 86.0699C27.7277 86.4099 27.4607 86.6499 27.1427 86.7899C26.82 86.9275 26.4724 86.997 26.1217 86.9939C25.3807 86.9939 24.7927 86.7629 24.3597 86.3009C23.9297 85.8389 23.7157 85.2449 23.7157 84.5179C23.7157 83.8199 23.9287 83.2049 24.3547 82.6749C24.7807 82.1449 25.4087 81.8809 26.2397 81.8809C27.3597 81.8809 28.1337 82.3849 28.5597 83.3949C28.7967 83.9499 28.9147 84.6449 28.9147 85.4789C28.9147 86.4209 28.7727 87.2549 28.4897 87.9819C28.0207 89.1919 27.2257 89.7979 26.1057 89.7979C25.3537 89.7979 24.7827 89.6009 24.3917 89.2069C24.0017 88.8129 23.8067 88.3189 23.8067 87.7239H24.7837ZM26.2507 86.1449C26.6328 86.1454 27.0032 86.0124 27.2977 85.7689C27.6167 85.5149 27.7757 85.0729 27.7757 84.4429C27.7757 83.8769 27.6327 83.4559 27.3457 83.1799C27.0637 82.9009 26.7017 82.7609 26.2607 82.7609C25.7887 82.7609 25.4127 82.9209 25.1327 83.2399C24.8577 83.5549 24.7197 83.9769 24.7197 84.5069C24.7197 85.0079 24.8417 85.4069 25.0847 85.7049C25.3287 85.9989 25.7167 86.1449 26.2507 86.1449ZM29.7907 89.5829C29.8257 88.9199 29.9617 88.3429 30.1977 87.8529C30.4377 87.3629 30.9037 86.9169 31.5947 86.5159L32.6257 85.9199C33.0877 85.6509 33.4117 85.4219 33.5977 85.2319C33.8917 84.9349 34.0377 84.5949 34.0377 84.2119C34.0377 83.7639 33.9047 83.4099 33.6357 83.1479C33.3667 82.8829 33.0087 82.7509 32.5617 82.7509C31.8987 82.7509 31.4407 83.0009 31.1867 83.5029C31.0507 83.7709 30.9747 84.1429 30.9607 84.6199H29.9777C29.9887 83.9499 30.1117 83.4039 30.3477 82.9819C30.7677 82.2369 31.5077 81.8649 32.5677 81.8649C33.4477 81.8649 34.0907 82.1029 34.4947 82.5789C34.9037 83.0549 35.1077 83.5849 35.1077 84.1689C35.1077 84.7849 34.8907 85.3109 34.4577 85.7479C34.2077 86.0019 33.7577 86.3099 33.1097 86.6719L32.3737 87.0799C32.0794 87.2348 31.8022 87.4201 31.5467 87.6329C31.1887 87.9449 30.9627 88.2899 30.8697 88.6699H35.0697V89.5829H29.7907ZM38.7867 81.8589C39.6467 81.8589 40.2437 82.0829 40.5807 82.5309C40.9207 82.9749 41.0907 83.4329 41.0907 83.9049H40.1347C40.0777 83.6009 39.9857 83.3629 39.8607 83.1909C39.6277 82.8689 39.2757 82.7079 38.8027 82.7079C38.2627 82.7079 37.8327 82.9579 37.5127 83.4599C37.1947 83.9569 37.0177 84.6719 36.9827 85.6029C37.2037 85.2769 37.4827 85.0329 37.8197 84.8729C38.1433 84.726 38.4953 84.6523 38.8507 84.6569C39.4957 84.6569 40.0577 84.8629 40.5377 85.2749C41.0177 85.6869 41.2577 86.3009 41.2577 87.1169C41.2577 87.8159 41.0297 88.4349 40.5747 88.9759C40.1207 89.5129 39.4727 89.7809 38.6307 89.7809C37.9107 89.7809 37.2907 89.5089 36.7667 88.9649C36.2437 88.4169 35.9827 87.4969 35.9827 86.2049C35.9827 85.2479 36.0997 84.4369 36.3327 83.7709C36.7797 82.4959 37.5977 81.8589 38.7867 81.8589ZM38.7167 88.9219C39.2247 88.9219 39.6047 88.7519 39.8557 88.4119C40.1097 88.0679 40.2367 87.6629 40.2367 87.1979C40.2367 86.8039 40.1237 86.4299 39.8987 86.0749C39.6727 85.7169 39.2627 85.5379 38.6687 85.5379C38.2527 85.5379 37.8887 85.6759 37.5727 85.9519C37.2607 86.2279 37.1057 86.6429 37.1057 87.1979C37.1057 87.6849 37.2467 88.0949 37.5297 88.4279C37.8157 88.7579 38.2117 88.9219 38.7167 88.9219ZM43.0507 87.6219C43.1157 88.1739 43.3707 88.5549 43.8197 88.7659C44.0487 88.8739 44.3137 88.9269 44.6137 88.9269C45.1867 88.9269 45.6117 88.7449 45.8867 88.3799C46.1627 88.0139 46.3007 87.6099 46.3007 87.1659C46.3007 86.6289 46.1357 86.2129 45.8067 85.9199C45.4854 85.6282 45.0645 85.4708 44.6307 85.4799C44.2977 85.4799 44.0107 85.5439 43.7707 85.6729C43.5311 85.8047 43.3237 85.9882 43.1637 86.2099L42.3257 86.1609L42.9117 82.0209H46.9077V82.9549H43.6367L43.3087 85.0929C43.4887 84.9569 43.6587 84.8539 43.8187 84.7859C44.1352 84.6623 44.4729 84.6022 44.8127 84.6089C45.5187 84.6089 46.1167 84.8369 46.6067 85.2909C47.0967 85.7459 47.3427 86.3229 47.3427 87.0209C47.3519 87.7219 47.1119 88.4033 46.6657 88.9439C46.2187 89.4989 45.5027 89.7759 44.5177 89.7759C43.9204 89.7853 43.3362 89.6008 42.8527 89.2499C42.3727 88.8949 42.1037 88.3529 42.0467 87.6219H43.0507ZM50.7907 81.8919C51.7867 81.8919 52.5057 82.3019 52.9507 83.1219C53.2937 83.7549 53.4657 84.6239 53.4657 85.7259C53.4657 86.7719 53.3097 87.6359 52.9987 88.3209C52.5477 89.3009 51.8087 89.7919 50.7857 89.7919C49.8617 89.7919 49.1747 89.3919 48.7227 88.5889C48.3467 87.9189 48.1587 87.0209 48.1587 85.8929C48.1587 85.0189 48.2717 84.2689 48.4977 83.6429C48.9197 82.4749 49.6847 81.8919 50.7907 81.8919ZM50.7807 88.9119C51.2807 88.9119 51.6807 88.6889 51.9777 88.2449C52.2747 87.8009 52.4237 86.9749 52.4237 85.7639C52.4237 84.8899 52.3167 84.1719 52.1017 83.6099C51.8867 83.0439 51.4697 82.7609 50.8497 82.7609C50.2807 82.7609 49.8637 83.0299 49.5987 83.5669C49.3367 84.1009 49.2067 84.8879 49.2067 85.9299C49.2067 86.7149 49.2907 87.3449 49.4587 87.8209C49.7167 88.5479 50.1567 88.9119 50.7807 88.9119ZM22.1587 56.9529C22.2947 57.1869 22.4977 57.4209 22.7337 57.5549C22.9707 57.7219 23.2417 57.8229 23.5127 57.9229C23.8167 57.9899 24.1217 58.0229 24.4257 58.0229C24.6636 58.0175 24.9009 57.9951 25.1357 57.9559C25.3737 57.8889 25.6097 57.8229 25.8127 57.7219C26.0157 57.6219 26.1857 57.4549 26.3207 57.2539C26.4557 57.0529 26.5237 56.8189 26.5237 56.5509C26.5237 56.0829 26.1857 55.7139 25.5427 55.4469C24.8997 55.2119 23.9857 54.9779 22.8357 54.7109C22.3617 54.6109 21.8887 54.4759 21.4487 54.3429C21.0191 54.208 20.6095 54.0163 20.2307 53.7729C19.8831 53.5409 19.5936 53.2319 19.3847 52.8699C19.1623 52.471 19.0459 52.0217 19.0467 51.5649C19.0467 50.7949 19.1817 50.1929 19.4867 49.6909C19.7907 49.2229 20.1967 48.8209 20.6707 48.5539C21.1437 48.2859 21.7197 48.0849 22.3287 47.9509C22.9545 47.8442 23.5879 47.7883 24.2227 47.7839C24.8657 47.7839 25.4747 47.8509 26.0837 47.9509C26.6937 48.0849 27.2337 48.2859 27.7077 48.5539C28.1817 48.8539 28.5877 49.2229 28.8917 49.6909C29.1967 50.1599 29.3997 50.7619 29.4677 51.4979H26.3547C26.3207 50.8619 26.0847 50.4609 25.6447 50.2269C25.2047 49.9919 24.6967 49.8919 24.1217 49.8919C23.9517 49.8919 23.7497 49.8919 23.5117 49.9249C23.3097 49.9589 23.1067 49.9919 22.9367 50.0589C22.764 50.1314 22.6125 50.2467 22.4967 50.3939C22.3617 50.5279 22.3287 50.7289 22.3287 50.9629C22.3287 51.2639 22.4297 51.4979 22.6327 51.6659C22.8357 51.8329 23.1397 51.9999 23.4787 52.1009C23.8167 52.2009 24.2227 52.3009 24.6627 52.4009C25.1027 52.5019 25.5427 52.6019 26.0157 52.7029C26.4897 52.8029 26.9637 52.9369 27.4037 53.1039C27.8437 53.2719 28.2487 53.4719 28.6217 53.7069C28.9597 53.9409 29.2647 54.2759 29.4677 54.6439C29.6707 55.0119 29.8057 55.4799 29.8057 56.0159C29.8057 56.7859 29.6357 57.4209 29.3317 57.9559C29.0277 58.4919 28.6217 58.8929 28.1137 59.2279C27.5798 59.5453 26.9968 59.7717 26.3887 59.8979C25.7457 60.0309 25.0687 60.0979 24.3917 60.0979C23.7157 60.0979 23.0387 60.0309 22.3617 59.8979C21.7428 59.7717 21.1487 59.5454 20.6027 59.2279C20.0822 58.9195 19.6508 58.4812 19.3507 57.9559C19.0127 57.4209 18.8437 56.7859 18.8097 55.9819H21.9217C21.9217 56.3839 21.9897 56.6859 22.1587 56.9529Z" fill="black"/>
<path fill-rule="evenodd" clip-rule="evenodd" d="M41.9648 59.8299L41.9878 59.8639V59.8299H41.9648ZM41.6838 58.7599C41.7158 59.2379 41.8098 59.5949 41.9648 59.8299H38.6048C38.5878 59.7299 38.5618 59.6379 38.5368 59.5459C38.5092 59.4522 38.4865 59.3571 38.4688 59.2609C38.4279 59.0743 38.4055 58.884 38.4018 58.6929C37.9055 59.2214 37.2735 59.6034 36.5748 59.7969C35.8756 60.0249 35.1442 60.138 34.4088 60.1319C33.8721 60.1376 33.3372 60.0699 32.8188 59.9309C32.3448 59.7969 31.9058 59.5959 31.5328 59.2949C31.1791 58.9881 30.8916 58.6125 30.6878 58.1909C30.4848 57.7559 30.3828 57.2209 30.3828 56.6179C30.3828 55.9479 30.5178 55.4129 30.7548 54.9779C30.9918 54.5429 31.2968 54.208 31.6688 53.9409C32.0681 53.6915 32.5007 53.4999 32.9538 53.3719C33.4308 53.2363 33.9171 53.1357 34.4088 53.0709L34.5888 53.0469C35.0288 52.9889 35.4468 52.9329 35.8638 52.9039C36.3378 52.8699 36.7438 52.8039 37.1158 52.7029C37.4878 52.6029 37.7928 52.4689 37.9958 52.3009C38.1988 52.1339 38.2998 51.8659 38.2998 51.5309C38.2998 51.1639 38.2328 50.8959 38.1308 50.6949C37.9958 50.4949 37.8608 50.3269 37.6568 50.2269C37.4515 50.0998 37.2207 50.0196 36.9808 49.9919C36.7121 49.9506 36.4407 49.9285 36.1688 49.9259C35.5258 49.9259 35.0188 50.0589 34.6458 50.3269C34.2738 50.5949 34.0708 51.0629 34.0028 51.6989H30.7548C30.7888 50.9629 30.9918 50.3269 31.3298 49.8249C31.6635 49.3326 32.1028 48.9209 32.6158 48.6199C33.1238 48.3199 33.7328 48.1189 34.3758 47.9849C35.0211 47.8502 35.6786 47.7829 36.3378 47.7839C36.9468 47.7839 37.5558 47.8509 38.1648 47.9179C38.7498 48.0039 39.3196 48.1729 39.8568 48.4199C40.3638 48.6539 40.8038 48.9889 41.1078 49.4239C41.4128 49.8589 41.5818 50.4269 41.5818 51.1299V57.2539C41.5818 57.7559 41.6158 58.2909 41.6838 58.7599ZM38.2808 55.9199C38.3088 55.6719 38.3338 55.4559 38.3338 55.3129V54.2089C38.1988 54.3089 38.0288 54.4089 37.8258 54.4759C37.6058 54.5515 37.3796 54.6077 37.1498 54.6439C36.9128 54.6769 36.6758 54.7109 36.4058 54.7439L36.0158 54.7939C35.8888 54.8109 35.7628 54.828 35.6268 54.8439C35.3867 54.884 35.1495 54.9401 34.9168 55.0119C34.6958 55.0711 34.4886 55.173 34.3068 55.3119C34.1177 55.4369 33.966 55.6107 33.8678 55.8149C33.7658 55.9819 33.6978 56.2499 33.6978 56.5509C33.6978 56.8519 33.7668 57.0859 33.8678 57.2869C33.9688 57.4879 34.1378 57.6549 34.3078 57.7559C34.4768 57.8559 34.7138 57.9559 34.9508 57.9899C35.1868 58.0229 35.4238 58.0569 35.6948 58.0569C36.3378 58.0569 36.8448 57.9229 37.1838 57.7219C37.5218 57.4879 37.7928 57.2539 37.9618 56.9519C38.1308 56.6519 38.2318 56.3499 38.2658 56.0489L38.2808 55.9199Z" fill="black"/>
<path d="M42.125 50.26V48.118H44.088V47.215C44.088 46.178 44.426 45.308 45.068 44.638C45.712 43.969 46.727 43.635 48.046 43.635C48.351 43.635 48.621 43.635 48.926 43.668C49.23 43.701 49.501 43.701 49.772 43.735V46.145C49.3785 46.1047 48.9835 46.082 48.588 46.077C48.148 46.077 47.809 46.177 47.64 46.378C47.437 46.579 47.37 46.914 47.37 47.416V48.119H49.636V50.26H47.37V59.864H44.122V50.26H42.125Z" fill="black"/>
<path fill-rule="evenodd" clip-rule="evenodd" d="M59.8488 49.925C60.3228 50.595 60.6948 51.331 60.8988 52.167C61.1008 53.004 61.1688 53.874 61.1008 54.811H52.5408C52.6088 55.848 52.8798 56.618 53.3528 57.086C53.8268 57.555 54.5378 57.789 55.4508 57.789C56.0938 57.789 56.6688 57.622 57.1428 57.287C57.6158 56.953 57.9208 56.617 58.0228 56.25H60.8968C60.4568 57.655 59.7468 58.66 58.7998 59.261C57.8518 59.864 56.7018 60.165 55.3488 60.165C54.4008 60.165 53.5548 60.031 52.8108 59.73C52.0954 59.4466 51.4491 59.0128 50.9158 58.458C50.3655 57.914 49.9486 57.25 49.6978 56.518C49.3938 55.748 49.2578 54.911 49.2578 54.008C49.2578 53.138 49.3938 52.335 49.6978 51.565C50.0028 50.795 50.4078 50.16 50.9498 49.591C51.509 49.0435 52.1625 48.6014 52.8788 48.286C53.6637 47.9701 54.5028 47.8108 55.3488 47.817C56.3638 47.817 57.2428 47.985 57.9878 48.387C58.7257 48.7377 59.3658 49.2662 59.8488 49.925ZM52.5408 52.736H57.8528C57.7178 51.9 57.4468 51.298 57.0068 50.896C56.6008 50.461 56.0268 50.26 55.2138 50.26C54.7068 50.26 54.2668 50.36 53.9288 50.528C53.5898 50.695 53.3188 50.896 53.1158 51.164C52.9128 51.398 52.7438 51.666 52.6758 51.967L52.6388 52.13C52.5858 52.356 52.5408 52.546 52.5408 52.736ZM37.0448 42.53L38.6348 46.713H37.6878L37.3838 45.776H35.7938L35.4548 46.713H34.5078L36.0978 42.53H37.0448ZM36.0298 45.107H37.1128L36.5718 43.567L36.0298 45.107Z" fill="black"/>
<path d="M32.9855 46.68C32.7958 46.7716 32.5871 46.8171 32.3765 46.813C32.0753 46.8125 31.7769 46.7559 31.4965 46.646C31.2265 46.546 31.0235 46.379 30.8545 46.178C30.6802 45.9684 30.5429 45.7307 30.4485 45.475C30.3465 45.207 30.3125 44.94 30.3125 44.605C30.3125 44.304 30.3465 44.003 30.4485 43.735C30.5495 43.467 30.6855 43.233 30.8545 43.032C31.0235 42.832 31.2605 42.664 31.4975 42.564C31.7675 42.464 32.0385 42.397 32.3775 42.397C32.5795 42.397 32.8175 42.43 33.0195 42.497C33.2225 42.564 33.3915 42.664 33.5605 42.798C33.7305 42.932 33.8655 43.066 33.9665 43.266C34.0685 43.434 34.1365 43.668 34.1695 43.902H33.2895C33.2373 43.6999 33.1324 43.5153 32.9855 43.367C32.8139 43.2572 32.6142 43.1992 32.4105 43.2C32.2075 43.2 32.0385 43.233 31.8695 43.333C31.7335 43.4 31.5995 43.534 31.4975 43.668C31.3956 43.8068 31.3263 43.9667 31.2945 44.136C31.2605 44.304 31.2265 44.471 31.2265 44.672C31.2265 44.839 31.2605 45.007 31.2945 45.174C31.3285 45.341 31.3955 45.475 31.4975 45.609C31.5985 45.743 31.7005 45.843 31.8695 45.943C32.0045 46.01 32.2075 46.077 32.4105 46.077C32.7155 46.077 32.9525 46.01 33.1205 45.843C33.2905 45.676 33.3915 45.475 33.4255 45.173H32.4785V44.471H34.2715V46.747H33.6625L33.5605 46.278C33.3575 46.445 33.1885 46.613 32.9855 46.68ZM39.5495 45.676C39.5835 45.776 39.6845 45.843 39.7525 45.91C39.8535 45.977 39.9225 46.01 40.0565 46.044C40.1585 46.077 40.2935 46.077 40.4295 46.077C40.4965 46.077 40.5985 46.077 40.6995 46.044C40.8015 46.044 40.8695 46.01 40.9705 45.977C41.0137 45.964 41.0539 45.9426 41.0888 45.9139C41.1236 45.8852 41.1524 45.8499 41.1735 45.81C41.2415 45.743 41.2415 45.642 41.2415 45.542C41.2415 45.442 41.2075 45.342 41.1395 45.274C41.0627 45.1994 40.9706 45.1424 40.8695 45.107C40.7335 45.074 40.5985 45.007 40.4625 44.973C40.3056 44.9362 40.1479 44.9028 39.9895 44.873C39.8195 44.839 39.6845 44.773 39.5155 44.739C39.3734 44.6733 39.2375 44.595 39.1095 44.505C39.0015 44.4091 38.9103 44.2959 38.8395 44.17C38.7668 44.0129 38.7318 43.841 38.7375 43.668C38.7375 43.468 38.7715 43.267 38.8725 43.099C38.9745 42.932 39.0755 42.798 39.2445 42.698C39.3805 42.598 39.5495 42.53 39.7525 42.463C39.9555 42.397 40.1245 42.397 40.3275 42.397C40.5645 42.397 40.7675 42.43 40.9705 42.463C41.1735 42.497 41.3425 42.597 41.5115 42.698C41.6815 42.798 41.7825 42.932 41.8835 43.133C41.9855 43.3 42.0195 43.501 42.0195 43.768H41.1055C41.1071 43.6641 41.0841 43.5613 41.0385 43.468C40.9922 43.3926 40.9349 43.3245 40.8685 43.266C40.8015 43.233 40.6995 43.2 40.5985 43.166C40.4965 43.133 40.3955 43.133 40.2935 43.133C40.2265 43.133 40.1585 43.133 40.0575 43.166C39.9895 43.166 39.9215 43.2 39.8535 43.233C39.7865 43.267 39.7525 43.333 39.7185 43.367C39.6845 43.434 39.6505 43.501 39.6505 43.601C39.6505 43.668 39.6505 43.735 39.6845 43.801C39.7185 43.869 39.7865 43.902 39.8875 43.936C39.9895 43.969 40.1245 44.036 40.2605 44.07C40.4295 44.103 40.6325 44.17 40.9025 44.237C40.9705 44.237 41.1055 44.27 41.2415 44.337C41.3765 44.371 41.5115 44.437 41.6475 44.538C41.7825 44.638 41.9175 44.738 42.0195 44.906C42.1205 45.074 42.1545 45.241 42.1545 45.475C42.1545 45.675 42.1205 45.843 42.0535 46.01C41.9855 46.178 41.8505 46.312 41.7145 46.445C41.5795 46.579 41.3765 46.646 41.1735 46.713C40.9705 46.78 40.6995 46.813 40.4295 46.813C40.1925 46.813 39.9555 46.78 39.7525 46.713C39.5495 46.646 39.3465 46.579 39.1775 46.445C39.0081 46.3221 38.8692 46.162 38.7715 45.977C38.6695 45.777 38.6355 45.575 38.6355 45.307H39.5495C39.4475 45.475 39.4815 45.609 39.5495 45.676Z" fill="black"/>
<path fill-rule="evenodd" clip-rule="evenodd" d="M61.0688 44.873C61.0688 44.203 60.5278 43.668 59.8508 43.668C59.1748 43.668 58.6328 44.17 58.6328 44.873C58.6328 45.542 59.1748 46.077 59.8508 46.077C60.4938 46.077 61.0688 45.575 61.0688 44.873ZM60.8658 44.873C60.8658 45.475 60.4258 45.91 59.8508 45.91C59.7158 45.9093 59.5823 45.8819 59.458 45.8293C59.3338 45.7767 59.2211 45.6999 59.1267 45.6035C59.0323 45.507 58.958 45.3928 58.9081 45.2674C58.8581 45.142 58.8336 45.0079 58.8358 44.873C58.8358 44.27 59.2758 43.835 59.8508 43.835C59.9859 43.8356 60.1195 43.8631 60.2438 43.9157C60.3682 43.9684 60.4808 44.0453 60.5753 44.1418C60.6697 44.2384 60.744 44.3528 60.7939 44.4783C60.8437 44.6038 60.8682 44.7379 60.8658 44.873ZM59.3778 44.17H59.9188C60.2568 44.17 60.4268 44.304 60.4268 44.571C60.4268 44.839 60.2568 44.94 60.0538 44.973L60.4598 45.609H60.2238L59.8168 45.007H59.5808V45.609H59.3438V44.169L59.3778 44.17ZM59.8508 44.806H59.6148V44.371H59.9188C60.0538 44.371 60.2228 44.371 60.2228 44.571C60.2228 44.806 60.0538 44.806 59.8508 44.806Z" fill="black"/>
</g>
<defs>
<clipPath id="clip0_8_630">
<rect width="70" height="76" fill="white"/>
</clipPath>
</defs>
</svg>
