<svg width="220" height="220" viewBox="0 0 220 220" fill="none" xmlns="http://www.w3.org/2000/svg">
    <g stroke="#6E7784" stroke-width="2.2" stroke-linecap="round" stroke-linejoin="round" fill="none">
        <g transform="matrix(1.1 0 0 1.1 -11 -10.5)">
            <line x1="56" y1="180" x2="102" y2="180"/>
            <line x1="62" y1="92" x2="62" y2="180"/>

            <line x1="42" y1="92" x2="92" y2="52"/>
            <line x1="92" y1="52" x2="144" y2="52"/>
            <line x1="144" y1="52" x2="188" y2="92"/>
            <line x1="42" y1="92" x2="126" y2="92"/>
            <line x1="140" y1="92" x2="176" y2="92"/>

            <path d="M78 72C81 78 89 78 92 72"/>
            <path d="M92 72C95 78 103 78 106 72"/>
            <path d="M106 72C109 78 117 78 120 72"/>
            <path d="M86 84C89 90 97 90 100 84"/>
            <path d="M100 84C103 90 111 90 114 84"/>
            <path d="M114 84C117 90 125 90 128 84"/>

            <line x1="110" y1="180" x2="110" y2="136"/>
            <line x1="110" y1="136" x2="122" y2="136"/>
            <line x1="122" y1="136" x2="122" y2="180"/>

            <rect x="146" y="116" width="18" height="28" rx="2"/>
            <line x1="150" y1="123" x2="160" y2="123"/>
            <circle cx="155" cy="134" r="1.6"/>
            <line x1="151" y1="144" x2="151" y2="154"/>
            <line x1="156" y1="144" x2="156" y2="154"/>
            <line x1="161" y1="144" x2="161" y2="154"/>

            <line x1="158" y1="116" x2="158" y2="36" stroke-width="4.6"/>

            <line x1="168" y1="58" x2="168" y2="118"/>
            <path d="M168 58L164 65"/>
            <path d="M168 58L172 65"/>
            <path d="M168 118L164 111"/>
            <path d="M168 118L172 111"/>
        </g>

        <rect x="159" y="17" width="8" height="12" rx="1" stroke-width="4.6"/>
        <line x1="155" y1="17" x2="171" y2="17" stroke-width="4.6"/>
    </g>

    <text x="174" y="101" fill="#FF5A3C" font-family="system-ui, sans-serif" font-size="14" font-weight="600">length</text>
</svg>
