<svg width="220" height="220" viewBox="0 0 220 220" fill="none" xmlns="http://www.w3.org/2000/svg">
    <g stroke="#6E7784" stroke-width="2.2" stroke-linecap="round" stroke-linejoin="round" fill="none">
        <line x1="58" y1="166" x2="108" y2="166"/>
        <line x1="126" y1="166" x2="138" y2="166"/>

        <line x1="76" y1="44" x2="76" y2="166"/>
        <line x1="58" y1="44" x2="96" y2="12"/>
        <line x1="96" y1="12" x2="146" y2="12"/>
        <line x1="58" y1="44" x2="126" y2="44"/>

        <line x1="116" y1="166" x2="116" y2="128"/>
        <line x1="116" y1="128" x2="134" y2="128"/>
        <line x1="134" y1="128" x2="134" y2="166"/>

        <g transform="translate(19 -52)">
            <g transform="matrix(1.1 0 0 1.1 -11 -10.5)">
                <rect x="68" y="116" width="18" height="28" rx="2"/>
                <line x1="72" y1="123" x2="82" y2="123"/>
                <circle cx="77" cy="134" r="1.6"/>
                <line x1="73" y1="144" x2="73" y2="154"/>
                <line x1="78" y1="144" x2="78" y2="154"/>
                <line x1="83" y1="144" x2="83" y2="154"/>

                <line x1="77" y1="116" x2="77" y2="108" stroke-width="4.6"/>
                <line x1="77" y1="108" x2="52" y2="108" stroke-width="4.6"/>
                <path d="M48 108C46 107 46 104 48 104"/>
            </g>

        </g>
    </g>
</svg>
