<svg width="180" height="180" viewBox="0 0 180 180" fill="none" xmlns="http://www.w3.org/2000/svg">
    <g stroke="#6E7784" stroke-width="2.4" stroke-linecap="round" stroke-linejoin="round">
        <path d="M36 58H76V122H36"/>
        <line x1="36" y1="68" x2="76" y2="68"/>
        <line x1="36" y1="112" x2="76" y2="112"/>

        <rect x="94" y="52" width="42" height="42" rx="2"/>
        <rect x="101" y="59" width="28" height="28" rx="1"/>

        <line x1="98" y1="52" x2="106" y2="52"/>
        <line x1="112" y1="52" x2="120" y2="52"/>
        <line x1="126" y1="52" x2="134" y2="52"/>

        <line x1="98" y1="94" x2="106" y2="94"/>
        <line x1="112" y1="94" x2="120" y2="94"/>
        <line x1="126" y1="94" x2="134" y2="94"/>

        <line x1="94" y1="56" x2="94" y2="64"/>
        <line x1="94" y1="70" x2="94" y2="78"/>
        <line x1="94" y1="84" x2="94" y2="92"/>

        <line x1="136" y1="56" x2="136" y2="64"/>
        <line x1="136" y1="70" x2="136" y2="78"/>
        <line x1="136" y1="84" x2="136" y2="92"/>
    </g>
</svg>
